<svg width="19" height="27" viewBox="0 0 19 27" version="1.1" xmlns="http://www.w3.org/2000/svg" xmlns:xlink="http://www.w3.org/1999/xlink">
<title>Group</title>
<desc>Created using Figma</desc>
<g id="Canvas" transform="translate(-266 -127)">
<g id="Group">
<g id="shield">
<g id="Stroke 1200">
<use xlink:href="#path0_stroke" transform="translate(267.102 128.5)" fill="url(#paint0_linear)"/>
</g>
<g id="Group 2">
<g id="Rectangle 3">
<use xlink:href="#path1_fill" transform="translate(271 138)" fill="#F63B57"/>
</g>
</g>
</g>
</g>
</g>
<defs>
<linearGradient id="paint0_linear" x1="0" y1="0" x2="1" y2="0" gradientUnits="userSpaceOnUse" gradientTransform="matrix(0 24.0425 -16.7964 0 8.39821 0)">
<stop offset="0" stop-color="#EF2646"/>
<stop offset="1" stop-color="#FD546B"/>
</linearGradient>
<path id="path0_stroke" d="M 10.5723 0L 11.4965 -0.382064C 11.3418 -0.756068 10.977 -1 10.5723 -1L 10.5723 0ZM 6.22451 0L 6.22451 -1C 5.81989 -1 5.45515 -0.756173 5.30046 -0.38229L 6.22451 0ZM 16.6593 5.08696L 14.0506 5.08696L 14.0506 7.08696L 16.6593 7.08696L 16.6593 5.08696ZM 14.0506 5.08696C 14.3867 5.08696 14.5042 5.29612 14.3441 5.13047C 14.2262 5.0114 14.1074 4.84951 13.9397 4.59063C 13.5916 4.0573 13.2156 3.3486 12.8479 2.60171C 12.4803 1.85538 12.1447 1.11416 11.896 0.548531C 11.7723 0.267264 11.6727 0.0353148 11.6028 -0.129369C 11.5681 -0.210986 11.5416 -0.274019 11.5232 -0.31785C 11.5142 -0.339421 11.5075 -0.355443 11.5029 -0.366611C 11.5006 -0.372028 11.499 -0.375884 11.4979 -0.378641C 11.4973 -0.379938 11.497 -0.380792 11.4967 -0.381446C 11.4966 -0.381733 11.4965 -0.381887 11.4965 -0.382031C 11.4965 -0.382082 11.4965 -0.382091 11.4964 -0.382117C 11.4965 -0.382102 11.4965 -0.382064 10.5723 0C 9.6482 0.382064 9.64823 0.382148 9.64828 0.382256C 9.6483 0.382322 9.64836 0.382453 9.64841 0.382587C 9.64851 0.382813 9.64867 0.383213 9.64886 0.383664C 9.6492 0.384484 9.64976 0.385836 9.65043 0.387465C 9.65172 0.390559 9.65374 0.395434 9.65628 0.401534C 9.66121 0.4134 9.66878 0.431558 9.67842 0.454569C 9.6974 0.499902 9.72589 0.567644 9.76192 0.652467C 9.83336 0.820664 9.93792 1.06426 10.0652 1.35364C 10.3183 1.92931 10.672 2.70984 11.0537 3.48525C 11.4354 4.2601 11.8688 5.07314 12.2631 5.68111C 12.4665 5.99288 12.7022 6.30653 12.9059 6.52034C 13.0676 6.68757 13.474 7.08696 14.0506 7.08696L 14.0506 5.08696ZM 10.5723 -1L 6.22451 -1L 6.22451 1L 10.5723 1L 10.5723 -1ZM 6.22451 0C 5.30046 -0.38229 5.30048 -0.382327 5.30049 -0.382342C 5.30048 -0.382316 5.30047 -0.382307 5.30045 -0.382256C 5.30039 -0.382111 5.30033 -0.381957 5.30021 -0.381671C 5.29994 -0.381016 5.29958 -0.380161 5.29904 -0.378865C 5.2979 -0.376107 5.2963 -0.37225 5.29404 -0.366833C 5.28939 -0.355664 5.28271 -0.33964 5.27367 -0.318067C 5.25531 -0.274234 5.22878 -0.211196 5.19409 -0.129576C 5.1241 0.0351116 5.02449 0.267073 4.90071 0.548348C 4.65185 1.11399 4.31608 1.85524 3.9483 2.6016C 3.58053 3.34852 3.2044 4.05732 2.85639 4.59071C 2.68862 4.84963 2.56987 5.01162 2.452 5.13074C 2.29166 5.29677 2.40945 5.08696 2.74625 5.08696L 2.74625 7.08696C 3.32304 7.08696 3.72953 6.68692 3.89066 6.52008C 4.09426 6.30631 4.32974 5.99276 4.53306 5.68103C 4.92723 5.07312 5.36066 4.26018 5.74245 3.48535C 6.12424 2.70997 6.47804 1.92949 6.73134 1.35383C 6.85866 1.06445 6.96328 0.820867 7.03476 0.652674C 7.07081 0.567854 7.09932 0.500117 7.11831 0.454785C 7.12795 0.431776 7.13553 0.41362 7.14046 0.401755C 7.143 0.395656 7.14503 0.390782 7.14631 0.387688C 7.14699 0.386059 7.14755 0.384708 7.14789 0.383888C 7.14807 0.383437 7.14824 0.383037 7.14833 0.382811C 7.14839 0.382678 7.14844 0.382548 7.14847 0.382481C 7.14852 0.382374 7.14855 0.38229 6.22451 0ZM 2.74625 5.08696C 2.26625 5.08696 1.61407 5.08696 1.0819 5.08696C 0.815812 5.08696 0.579725 5.08696 0.410159 5.08696C 0.325377 5.08696 0.257225 5.08696 0.210268 5.08696C 0.18679 5.08696 0.16861 5.08696 0.156301 5.08696C 0.150146 5.08696 0.145458 5.08696 0.142309 5.08696C 0.140735 5.08696 0.139545 5.08696 0.138749 5.08696C 0.138351 5.08696 0.138052 5.08696 0.137851 5.08696C 0.137751 5.08696 0.137676 5.08696 0.137626 5.08696C 0.137601 5.08696 0.137582 5.08696 0.137569 5.08696C 0.137557 5.08696 0.137551 5.08696 0.137551 6.08696C 0.137551 7.08696 0.137557 7.08696 0.137569 7.08696C 0.137582 7.08696 0.137601 7.08696 0.137626 7.08696C 0.137676 7.08696 0.137751 7.08696 0.137851 7.08696C 0.138052 7.08696 0.138351 7.08696 0.138749 7.08696C 0.139545 7.08696 0.140735 7.08696 0.142309 7.08696C 0.145458 7.08696 0.150146 7.08696 0.156301 7.08696C 0.16861 7.08696 0.18679 7.08696 0.210268 7.08696C 0.257225 7.08696 0.325377 7.08696 0.410159 7.08696C 0.579725 7.08696 0.815812 7.08696 1.0819 7.08696C 1.61407 7.08696 2.26625 7.08696 2.74625 7.08696L 2.74625 5.08696ZM 0.137551 5.08696C -0.367049 5.08696 -0.670003 5.41217 -0.798619 5.62996C -0.91331 5.82417 -0.95318 6.02022 -0.970956 6.13325C -1.00043 6.33831 -1.00484 6.64283 -0.986416 6.92592C -0.949631 7.45769 -0.834822 8.22397 -0.660894 9.08979C -0.315774 10.8025 0.295786 13.1126 1.08778 15.3931C 1.88044 17.6713 2.89644 20.0237 4.02228 21.7783C 4.59573 22.666 5.26619 23.484 5.93016 24.0407C 6.63015 24.6212 7.46178 25.0425 8.39842 25.0425L 8.39842 23.0425C 8.08506 23.0425 7.69098 22.9027 7.20677 22.5012C 6.68655 22.076 6.21432 21.4912 5.7038 20.6955C 4.6617 19.0835 3.74466 16.947 2.97689 14.7364C 2.20845 12.528 1.63218 10.3492 1.2998 8.69522C 1.13498 7.87772 1.03862 7.24121 1.00903 6.79104C 0.994269 6.58316 1.01665 6.386 1.00476 6.44396C 1.00469 6.44733 0.990218 6.50361 0.993183 6.49119C 0.984993 6.51826 0.965339 6.57612 0.923502 6.64697C 0.835012 6.79681 0.582042 7.08696 0.137551 7.08696L 0.137551 5.08696ZM 8.39842 25.0425C 9.33507 25.0425 10.1667 24.6212 10.8666 24.0407C 11.5306 23.484 12.201 22.6659 12.7744 21.7783C 13.9 20.0236 14.9159 17.6713 15.7084 15.393C 16.5003 13.1125 17.1118 10.8025 17.457 9.08984C 17.631 8.22404 17.7458 7.45787 17.7827 6.92616C 17.8012 6.64314 17.7969 6.3388 17.7676 6.13386C 17.7499 6.02094 17.7102 5.82502 17.5958 5.63086C 17.4677 5.41332 17.1648 5.08696 16.6593 5.08696L 16.6593 7.08696C 16.2138 7.08696 15.9608 6.79566 15.8727 6.64607C 15.8309 6.57523 15.8113 6.51741 15.8032 6.49041C 15.8061 6.50278 15.7918 6.44676 15.7917 6.44335C 15.7798 6.38527 15.8021 6.58286 15.7873 6.7908C 15.7576 7.24104 15.6612 7.87764 15.4963 8.69518C 15.1638 10.3492 14.5876 12.528 13.8193 14.7364C 13.0516 16.947 12.1347 19.0836 11.0928 20.6956C 10.5823 21.4912 10.1101 22.076 9.58997 22.5012C 9.10581 22.9027 8.71177 23.0425 8.39842 23.0425L 8.39842 25.0425Z"/>
<path id="path1_fill" fill-rule="evenodd" d="M 0 1C 0 0.447715 0.447715 0 1 0L 8 0C 8.55229 0 9 0.447716 9 1C 9 1.55228 8.55229 2 8 2L 1 2C 0.447715 2 0 1.55228 0 1Z"/>
</defs>
</svg>
